# xmcd
#
# Track frame offsets: 
#        150
#        15120
#        28000
#        44940
#        59977
#        84257
#        99250
#        118857
#        134720
#        148265
#        161347
#        177125
#        187597
#        199947
#        214665
#        228804
#        239247
#        256565
#        275290
#        288057
#        303315
#        319827
#
# Disc length: 4479 seconds
#
# Revision: 1
# Processed by: cddbd v1.5.2PL0 Copyright (c) Steve Scherf et al.
# Submitted via: ExactAudioCopyFreeDBPlugin 1.0
#
DISCID=36117d16
DTITLE=Various Artist - Blues Harp Boogie
DYEAR=1993
DGENRE=Blues
TTITLE0=Paul Orta and the Kingpins - Wailing at Weavers
TTITLE1=King Biscuit Boy - Get it Right
TTITLE2=Billy Boy Arnold and Tony McPhee - Catfish
TTITLE3=Louisiana Red with Bill Dicey - Alabama Train
TTITLE4=Junior Wells with Buddy Guy - Country Girl
TTITLE5=Greg 'Fingers' Taylor with Anson Funderburch and the Rockets - S
TTITLE5=oul Survivor
TTITLE6=Big Walter 'Shaky' Horton - Junkin' with Walter
TTITLE7=Charlie Musslewhite - I'm Going Home
TTITLE8=Sonny Boy Williamson - Your Funeral and My Trial
TTITLE9=Troyce Key and J. J. Malone feat. Paul Green - Annie Maybe
TTITLE10=Sonny Blake and Mose Vinson - Bugle Call Blues
TTITLE11=The Paul deLay Band - Harpoon Man
TTITLE12=Carey Bell and Muddy Waters - Trouble No More
TTITLE13=King Biscuit Boy - I've Done Everything I Can
TTITLE14=Little Walter - Walter's Jump
TTITLE15=Paul Lamb and the Blues Burglars - You Sure Make Loving Hard
TTITLE16=Jimmy Reed - Cry Before I Go
TTITLE17=Big Walter 'Shaky' Horton - Rockin' My Boogie
TTITLE18=The Paul deLay Band - Mine All Mine
TTITLE19=Junior Wells and Buddy Guy - Hoodoo Man Blues
TTITLE20=Harmonica Red and Clarence Edwards - I'm Your Slave
TTITLE21=Greg 'Fingers' Taylor with Anson Funderburch and the Rockets - 
TTITLE21=Dixie Diner
EXTD=
EXTT0=
EXTT1=
EXTT2=
EXTT3=
EXTT4=
EXTT5=
EXTT6=
EXTT7=
EXTT8=
EXTT9=
EXTT10=
EXTT11=
EXTT12=
EXTT13=
EXTT14=
EXTT15=
EXTT16=
EXTT17=
EXTT18=
EXTT19=
EXTT20=
EXTT21=
PLAYORDER=
